# xmcd CD database file
#
# Track frame offsets:
#	150
#	15738
#	33353
#	51314
#	69691
#	83343
#	98468
#	120916
#	137104
#	156900
#
# Disc length: 2307 seconds
#
# Revision: 0
# Processed by: cddbd v1.5.1PL0 Copyright (c) Steve Scherf et al.
# Submitted via: CDex 1.51
#
DISCID=7409010a
DTITLE=Sergio González - Tsakca
DYEAR=2000
DGENRE=New Age
TTITLE0=Carnavalito de Belén
TTITLE1=Tangá. "Homenaje a Astor Piazzolla"
TTITLE2=Colombinas del 92´.
TTITLE3=Siberia...Imágenes.
TTITLE4=PipusClan.
TTITLE5=Malambo de Sur a Norte.
TTITLE6=Lepardupo.
TTITLE7=Sola.
TTITLE8=Cecilia.
TTITLE9=Retrato a Maria Juliana
EXTD=YEAR: 2000
EXTT0=
EXTT1=
EXTT2=
EXTT3=
EXTT4=
EXTT5=
EXTT6=
EXTT7=
EXTT8=
EXTT9=
PLAYORDER=
